<?xml version="1.0" encoding="utf-8"?>
<!-- Generator: Adobe Illustrator 17.0.0, SVG Export Plug-In . SVG Version: 6.00 Build 0)  -->
<!DOCTYPE svg PUBLIC "-//W3C//DTD SVG 1.1//EN" "http://www.w3.org/Graphics/SVG/1.1/DTD/svg11.dtd">
<svg version="1.1" id="b6117b06-2b45-45bc-b789-4a82ab6612dd"
	 xmlns="http://www.w3.org/2000/svg" xmlns:xlink="http://www.w3.org/1999/xlink" x="0px" y="0px" width="750px"
	 height="580px" viewBox="0 0 1139.171 654.543" enable-background="new 0 0 1139.171 654.543" xml:space="preserve">
<title>progressive_app</title>
<circle fill="#F2F2F2" cx="477.598" cy="519.932" r="52.617"/>
<circle fill="#6C63FF" cx="294.923" cy="512.232" r="52.617"/>
<rect x="337.298" y="454.012" fill="#3F3D56" width="651.019" height="1.776"/>
<path fill="#3F3D56" d="M674.462,73.089H443.39v-4.763H338.614v4.763H106.589c-8.632,0-15.63,6.998-15.63,15.63c0,0,0,0,0,0v316.408
	c0,8.632,6.998,15.63,15.63,15.63h567.873c8.632,0,15.63-6.998,15.63-15.63V88.719C690.092,80.087,683.095,73.089,674.462,73.089
	L674.462,73.089z"/>
<rect x="111.914" y="100.712" fill="#6C63FF" width="557.223" height="314.331"/>
<circle fill="#6C63FF" cx="390.049" cy="86.424" r="5.715"/>
<polygon opacity="0.1" enable-background="new    " points="509.781,415.043 111.915,415.043 111.915,100.712 "/>
<circle fill="#F2F2F2" cx="390.334" cy="337.959" r="53.562"/>
<rect x="520.065" y="270.233" fill="#3F3D56" width="52.051" height="10.876"/>
<rect x="457.138" y="185.554" fill="#3F3D56" width="177.905" height="4.661"/>
<rect x="457.138" y="200.314" fill="#3F3D56" width="177.905" height="4.661"/>
<rect x="457.138" y="215.075" fill="#3F3D56" width="177.905" height="4.661"/>
<rect x="457.138" y="229.836" fill="#3F3D56" width="177.905" height="4.661"/>
<rect x="457.138" y="244.596" fill="#3F3D56" width="177.905" height="4.661"/>
<rect x="804.521" y="107.089" fill="#F2F2F2" width="21.752" height="21.753"/>
<path fill="#3F3D56" d="M645.142,138.941h-26.414v-26.414h26.414V138.941z M619.876,137.793h24.117v-24.117h-24.117V137.793z"/>
<path fill="#3F3D56" d="M705.738,409.328h-54.381v-3.918c0-0.429-0.348-0.777-0.777-0.777l0,0h-18.645
	c-0.429,0-0.777,0.348-0.777,0.777l0,0v3.918h-11.653v-3.918c0-0.429-0.348-0.777-0.777-0.777h0h-18.645
	c-0.429,0-0.777,0.348-0.777,0.777l0,0v3.918h-11.653v-3.918c0-0.429-0.348-0.777-0.777-0.777l0,0h-18.645
	c-0.429,0-0.777,0.348-0.777,0.777l0,0v3.918h-11.653v-3.918c0-0.429-0.348-0.777-0.777-0.777l0,0h-18.645
	c-0.429,0-0.777,0.348-0.777,0.777l0,0v3.918h-11.653v-3.918c0-0.429-0.348-0.777-0.777-0.777l0,0h-18.645
	c-0.429,0-0.777,0.348-0.777,0.777v0v3.918h-11.653v-3.918c0-0.429-0.348-0.777-0.777-0.777h0h-18.645
	c-0.429,0-0.777,0.348-0.777,0.777l0,0v3.918h-11.653v-3.918c0-0.429-0.348-0.777-0.777-0.777h0H313.416
	c-0.429,0-0.777,0.348-0.777,0.777l0,0v3.918h-11.653v-3.918c0-0.429-0.348-0.777-0.777-0.777h0h-18.645
	c-0.429,0-0.777,0.348-0.777,0.777v0v3.918h-11.653v-3.918c0-0.429-0.348-0.777-0.777-0.777h0h-18.645
	c-0.429,0-0.777,0.348-0.777,0.777c0,0,0,0,0,0v3.918h-11.653v-3.918c0-0.429-0.348-0.777-0.777-0.777c0,0,0,0,0,0H217.86
	c-0.429,0-0.777,0.348-0.777,0.777l0,0v3.918H205.43v-3.918c0-0.429-0.348-0.777-0.777-0.777c0,0,0,0,0,0h-18.645
	c-0.429,0-0.777,0.348-0.777,0.777c0,0,0,0,0,0v3.918h-11.653v-3.918c0-0.429-0.348-0.777-0.777-0.777c0,0,0,0,0,0h-18.645
	c-0.429,0-0.777,0.348-0.777,0.777c0,0,0,0,0,0v3.918h-11.653v-3.918c0-0.429-0.348-0.777-0.777-0.777c0,0,0,0,0,0h-18.645
	c-0.429,0-0.777,0.348-0.777,0.777v0v3.918H85.791c-10.297,0-18.645,8.348-18.645,18.645v8.431c0,10.297,8.348,18.645,18.645,18.645
	h619.947c10.297,0,18.645-8.348,18.645-18.645v-8.431C724.383,417.675,716.035,409.328,705.738,409.328z"/>
<path fill="#3F3D56" d="M77.255,146.951c-37.279,0-67.5-30.221-67.5-67.5s30.221-67.5,67.5-67.5s67.5,30.221,67.5,67.5
	C144.713,116.712,114.517,146.908,77.255,146.951z M77.255,13.727c-36.298,0-65.724,29.425-65.724,65.724
	s29.426,65.724,65.724,65.724s65.724-29.425,65.724-65.724C142.938,43.169,113.536,13.768,77.255,13.727z"/>
<rect x="587.759" y="85.427" fill="#3F3D56" width="226.48" height="1.776"/>
<rect x="427.89" y="554.374" fill="#3F3D56" width="651.019" height="1.776"/>
<rect x="238.269" y="636.084" fill="#3F3D56" width="226.48" height="1.776"/>
<rect x="485.469" y="545.01" fill="#6C63FF" width="24.868" height="24.868"/>
<path fill="#3F3D56" d="M525.436,555.668h-30.197V525.47h30.197V555.668z M496.551,554.355h27.572v-27.571h-27.572V554.355z"/>
<rect x="774.12" y="76.062" fill="#6C63FF" width="24.868" height="24.868"/>
<path fill="#3F3D56" d="M814.087,86.72H783.89V56.523h30.197V86.72z M785.203,85.407h27.571V57.836h-27.571V85.407z"/>
<rect x="1024.58" y="545.01" fill="#6C63FF" width="24.868" height="24.868"/>
<path fill="#3F3D56" d="M1064.548,555.668h-30.197V525.47h30.197V555.668z M1035.663,554.355h27.572v-27.571h-27.572V554.355z"/>
<path fill="#3F3D56" d="M1006.081,262.539h-2.113v-57.874c0-18.499-14.997-33.496-33.496-33.496h0H847.86
	c-18.499,0-33.496,14.996-33.496,33.496c0,0,0,0,0,0v317.5c0,18.499,14.997,33.496,33.496,33.496c0,0,0,0,0,0h122.613
	c18.499,0,33.496-14.996,33.496-33.496c0,0,0,0,0,0V303.734h2.113L1006.081,262.539z"/>
<path fill="#6C63FF" d="M996.836,206.633V523.67c0.002,13.815-11.195,25.017-25.011,25.019H848.62
	c-13.815-0.003-25.013-11.204-25.01-25.019V206.633c0.001-13.812,11.198-25.009,25.01-25.011h14.948
	c-2.478,6.077,0.441,13.012,6.518,15.489c1.424,0.581,2.948,0.879,4.487,0.879h70.244c6.563,0,11.883-5.319,11.883-11.882
	c0-1.538-0.298-3.062-0.879-4.487h16.005C985.637,181.624,996.834,192.821,996.836,206.633z"/>
<rect x="891.872" y="390.664" fill="#3F3D56" width="36.702" height="10.876"/>
<rect x="847.501" y="305.984" fill="#3F3D56" width="125.444" height="4.661"/>
<rect x="847.501" y="320.745" fill="#3F3D56" width="125.444" height="4.661"/>
<rect x="847.501" y="335.506" fill="#3F3D56" width="125.444" height="4.661"/>
<rect x="847.501" y="350.266" fill="#3F3D56" width="125.444" height="4.661"/>
<rect x="847.501" y="365.027" fill="#3F3D56" width="125.444" height="4.661"/>
<rect x="1084.083" y="244.083" fill="#F2F2F2" width="21.753" height="21.753"/>
<path fill="#3F3D56" d="M901.179,249.523v26.414h26.414v-26.414H901.179z M926.447,274.791h-24.122v-24.122h24.122V274.791z"/>
<path opacity="0.1" enable-background="new    " d="M996.836,489.814v33.857c0.002,13.815-11.195,25.017-25.011,25.019H848.62
	c-13.815-0.003-25.013-11.204-25.01-25.019V352.957l103.799,82.004l1.776,1.403l19.309,15.25l1.803,1.43L996.836,489.814z"/>
<circle fill="#F2F2F2" cx="1090.796" cy="499.453" r="38.962"/>
<path fill="#3F3D56" d="M351.509,637.861c-42.675,0-77.27-34.595-77.27-77.27c0-42.675,34.595-77.27,77.27-77.27
	s77.27,34.595,77.27,77.27C428.73,603.246,394.164,637.813,351.509,637.861z M351.509,485.098c-41.694,0-75.493,33.8-75.493,75.493
	c0,41.694,33.8,75.493,75.493,75.493s75.493-33.8,75.493-75.493C426.955,518.917,393.183,485.145,351.509,485.098z"/>
<path fill="#3F3D56" d="M911.048,529.505c-26.978,0-48.849-21.87-48.849-48.849s21.87-48.849,48.849-48.849
	s48.849,21.87,48.849,48.849C959.867,507.623,938.014,529.475,911.048,529.505z M911.048,433.584
	c-25.997,0-47.072,21.075-47.072,47.072s21.075,47.072,47.072,47.072s47.072-21.075,47.072-47.072l0,0
	C958.092,454.672,937.034,433.614,911.048,433.584z"/>
</svg>
